<?xml version="1.0" encoding="iso-8859-1"?>
<!-- Generator: Adobe Illustrator 18.0.0, SVG Export Plug-In . SVG Version: 6.00 Build 0)  -->
<!DOCTYPE svg PUBLIC "-//W3C//DTD SVG 1.1//EN" "http://www.w3.org/Graphics/SVG/1.1/DTD/svg11.dtd">
<svg version="1.1" id="Capa_1" xmlns="http://www.w3.org/2000/svg" xmlns:xlink="http://www.w3.org/1999/xlink" x="0px" y="0px"
	 viewBox="0 0 481.552 481.552" style="enable-background:new 0 0 481.552 481.552;" xml:space="preserve">
<g>
	<path d="M88.355,261.983l-31.284-31.284c-14.426-14.426-14.426-37.899,0-52.326l31.283-31.283
		c6.967-6.967,16.259-10.804,26.163-10.804s19.196,3.837,26.163,10.804l13.561,13.56c1.566-0.869,3.213-1.637,4.939-2.286
		l41.41-15.572c4.163-1.565,8.522-2.359,12.955-2.359c15.365,0,29.31,9.632,34.701,23.969l15.572,41.41
		c3.468,9.223,3.125,19.27-0.965,28.29c-4.09,9.02-11.422,15.897-20.645,19.366l-31.717,11.926H349.34l-19.549-6.421
		c-9.361-3.074-16.977-9.636-21.445-18.475c-4.468-8.839-5.236-18.862-2.161-28.224l13.805-42.031
		c4.999-15.222,19.149-25.449,35.211-25.449c3.901,0,7.766,0.62,11.487,1.842l42.032,13.805c9.361,3.074,16.977,9.636,21.445,18.475
		c4.468,8.839,5.236,18.862,2.161,28.224l-13.805,42.032c-2.113,6.433-5.864,11.968-10.699,16.222h42.525V129.822
		c0-8.456-6.879-15.335-15.335-15.335H46.54c-8.456,0-15.335,6.879-15.335,15.335v135.571h61.081
		C90.91,264.357,89.594,263.222,88.355,261.983z"/>
	<path d="M455.908,285.394H25.644C11.503,285.394,0,296.897,0,311.037v9.336c0,11.505,7.617,21.264,18.072,24.501
		c-0.642,1.764-1.009,3.66-1.009,5.646c0,9.138,7.408,16.546,16.546,16.546h26.198c9.138,0,16.545-7.408,16.545-16.546
		c0-1.564-0.231-3.07-0.637-4.504h330.121c-0.405,1.434-0.637,2.94-0.637,4.504c0,9.138,7.408,16.546,16.546,16.546h26.198
		c9.138,0,16.546-7.408,16.546-16.546c0-1.986-0.368-3.881-1.009-5.646c10.456-3.237,18.072-12.996,18.072-24.501v-9.336
		C481.552,296.897,470.048,285.394,455.908,285.394z"/>
	<path d="M402.478,179.442l-42.031-13.805c-1.704-0.56-3.469-0.843-5.247-0.843c-7.399,0-13.914,4.698-16.21,11.69l-13.805,42.031
		c-2.925,8.906,1.941,18.531,10.847,21.456l42.032,13.805c1.704,0.559,3.469,0.843,5.246,0.843c7.399,0,13.913-4.698,16.21-11.69
		l13.805-42.031C416.249,191.993,411.383,182.368,402.478,179.442z"/>
	<path d="M126.539,161.232c-3.189-3.19-7.458-4.947-12.021-4.947c-4.562,0-8.831,1.757-12.021,4.947l-31.283,31.283
		c-6.628,6.628-6.628,17.413,0,24.041l31.283,31.284c3.189,3.189,7.459,4.946,12.021,4.946c4.562,0,8.831-1.757,12.021-4.947
		l19.446-19.445l-8.414-22.376c-4.014-10.674-2.751-22.059,2.474-31.281L126.539,161.232z"/>
	<path d="M187.843,251.398c2.02,0,4.01-0.363,5.915-1.08l41.41-15.571c4.222-1.588,7.585-4.751,9.469-8.905
		c1.884-4.155,2.047-8.768,0.46-12.99l-15.572-41.41c-2.476-6.584-8.898-11.008-15.98-11.008c-2.02,0-4.01,0.363-5.915,1.08
		l-41.41,15.571c-8.774,3.3-13.228,13.122-9.929,21.896l15.571,41.41C174.338,246.974,180.761,251.398,187.843,251.398z"/>
	<path d="M153.763,248.901l-13.082,13.082c-1.239,1.239-2.554,2.374-3.93,3.411H167.7
		C161.614,261.454,156.695,255.767,153.763,248.901z"/>
</g>
<g>
</g>
<g>
</g>
<g>
</g>
<g>
</g>
<g>
</g>
<g>
</g>
<g>
</g>
<g>
</g>
<g>
</g>
<g>
</g>
<g>
</g>
<g>
</g>
<g>
</g>
<g>
</g>
<g>
</g>
</svg>
