<svg xmlns="http://www.w3.org/2000/svg" xmlns:xlink="http://www.w3.org/1999/xlink" version="1.1" x="0px" y="0px" viewBox="0 0 78.805 95.28625" enable-background="new 0 0 78.805 76.229" xml:space="preserve"><path d="M19.867,0c-5.04,1.416-8.889,2.918-9.577,6.73c-0.756,4.188,4.411,5.699,8.595,5.353C13.013,10.405,10.947,4.526,19.867,0z   M22.617,5.305c-1.574,0-3.209,0.112-4.764,0.245c7.97,2.043,14.049,4.907-5.255,18.665c4.743-1.637,14.668-7.075,16.896-12.967  C31.33,6.392,27.343,5.323,22.617,5.305L22.617,5.305z M15.938,17.24C7.611,19.578,1.26,22.046,0.123,28.34  c-1.25,6.918,7.281,9.412,14.194,8.84C4.616,34.41,1.203,24.716,15.938,17.24L15.938,17.24z M39.758,18.32  c-0.771-0.071-1.402,0.457-1.473,1.229l-0.295,3.045c-0.071,0.771,0.457,1.5,1.228,1.572l11.345,1.031  c0.772,0.071,1.402-0.555,1.474-1.327l0.295-3.044c0.07-0.771-0.456-1.403-1.228-1.474L39.758,18.32z M33.767,25.934  c-9.314,0.087-17.23,1.737-19.106,5.452c-0.33,0.735,0.06,1.369,0.786,1.424l54.028,4.96c0.844,0.128,1.157-0.386,0.981-1.179  c-1.317-5.2-14.088-8.977-27.111-10.216C40.099,26.067,36.872,25.905,33.767,25.934z M31.409,27.505  c-3.277,0.899-5.101,2.116-6.041,3.684c-0.249,0.439-0.586,0.74-1.179,0.687l-5.009-0.441c-0.692-0.017-1.101-0.333-0.786-0.737  C19.82,29.057,24.903,28.024,31.409,27.505L31.409,27.505z M13.679,41.699c-0.567,0.001-0.994,0.288-1.032,1.032v1.276l-7.023-1.916  c-0.132-0.045-0.315-0.065-0.442-0.048c-0.381,0.054-0.638,0.395-0.639,0.885v3.781c0.018,0.692,0.288,1.043,0.834,1.229  l7.269,1.964V68.86c0,4.085,3.284,7.368,7.368,7.368h43.369c4.083,0,7.367-3.284,7.367-7.368V49.902l7.122-1.964  c0.547-0.186,0.914-0.536,0.933-1.229v-3.781c-0.001-0.49-0.355-0.831-0.737-0.885c-0.126-0.02-0.259,0-0.393,0.048l-6.925,1.916  v-1.179c0.04-0.715-0.53-1.104-1.276-1.13H13.679L13.679,41.699z M18.934,47.495l12.132,0.048c0.872,0,1.161,0.396,1.129,1.18  v19.892c0.007,0.729-0.265,1.146-1.031,1.129h-8.547c-2.636,0-4.714-2.128-4.714-4.764V48.526  C17.892,47.869,18.32,47.479,18.934,47.495L18.934,47.495z"/><text x="0" y="91.229" fill="#000000" font-size="5px" font-weight="bold" font-family="'Helvetica Neue', Helvetica, Arial-Unicode, Arial, Sans-serif">Created by Alexandr Cherkinsky</text><text x="0" y="96.229" fill="#000000" font-size="5px" font-weight="bold" font-family="'Helvetica Neue', Helvetica, Arial-Unicode, Arial, Sans-serif">from the Noun Project</text></svg>