<?xml version="1.0" encoding="iso-8859-1"?>
<!-- Generator: Adobe Illustrator 18.1.1, SVG Export Plug-In . SVG Version: 6.00 Build 0)  -->
<svg version="1.1" id="Capa_1" xmlns="http://www.w3.org/2000/svg" xmlns:xlink="http://www.w3.org/1999/xlink" x="0px" y="0px"
	 viewBox="0 0 32.026 32.026" style="enable-background:new 0 0 32.026 32.026;" xml:space="preserve">
<g>
	<g>
		<circle style="fill:#030104;" cx="16.029" cy="13.026" r="2"/>
		<path style="fill:#030104;" d="M27.019,19.199l-7.994-6.328c0.003,0.051,0.004,0.104,0.004,0.155c0,1.073-0.562,2.014-1.409,2.544
			c0.179,0.486,0.403,0.912,0.869,1.182c1.301,0.75,8.366,2.79,8.366,2.79C27.377,19.695,27.444,19.536,27.019,19.199z"/>
		<path style="fill:#030104;" d="M17.436,10.378c0.333-0.399,0.593-0.809,0.593-1.35c0-1.5-1.767-8.643-1.767-8.643
			c-0.13-0.529-0.301-0.507-0.38,0.029l-1.483,10.093c0.471-0.304,1.029-0.48,1.63-0.479C16.538,10.028,17.017,10.155,17.436,10.378
			z"/>
		<path style="fill:#030104;" d="M13.031,13.125c-0.51-0.088-0.994-0.107-1.462,0.163c-1.3,0.75-6.6,5.852-6.6,5.852
			c-0.394,0.375-0.289,0.512,0.215,0.312l9.472-3.757C13.717,15.21,13.067,14.245,13.031,13.125z"/>
		<path style="fill:#030104;" d="M16.03,16.026c-0.389,0-0.762-0.074-1.104-0.21l-0.896,15.21c0,0,0.5,1,2,1s2-1,2-1l-0.896-15.21
			C16.792,15.952,16.419,16.026,16.03,16.026z"/>
	</g>
</g>
<g>
</g>
<g>
</g>
<g>
</g>
<g>
</g>
<g>
</g>
<g>
</g>
<g>
</g>
<g>
</g>
<g>
</g>
<g>
</g>
<g>
</g>
<g>
</g>
<g>
</g>
<g>
</g>
<g>
</g>
</svg>
