<?xml version="1.0" encoding="iso-8859-1"?>
<!-- Generator: Adobe Illustrator 18.1.1, SVG Export Plug-In . SVG Version: 6.00 Build 0)  -->
<svg version="1.1" id="Capa_1" xmlns="http://www.w3.org/2000/svg" xmlns:xlink="http://www.w3.org/1999/xlink" x="0px" y="0px"
	 viewBox="0 0 199.167 199.167" style="enable-background:new 0 0 199.167 199.167;" xml:space="preserve">
<g>
	<g>
		<path style="fill:#010002;" d="M122.76,67.365c-12.104,0-23.692,1.192-32.779,3.361c-1.997-9.087-5.962-20.017-11.223-30.896
			C67.423,16.38,53.681,0,45.338,0c-0.963,0-1.868,0.197-2.706,0.598c-4.27,2.065-5.418,8.568-3.407,19.326
			c1.811,9.606,5.97,21.452,11.735,33.355c5.336,11.03,11.517,21.019,17.476,28.259c-7.143,5.984-14.988,14.534-22.185,24.186
			c-7.906,10.618-14.23,21.455-17.805,30.535c-4.015,10.196-4.119,16.796-0.311,19.634c1.102,0.82,2.444,1.235,4.005,1.235
			c8.443,0,24.429-13.55,38.877-32.947c3.063-4.105,5.891-8.256,8.443-12.383l-5.161,85.785l-0.068,1.306l4.334,0.265l5.762-95.838
			c1.621-3.06,3.013-6.03,4.159-8.815c1.07,0.276,2.237,0.551,3.59,0.837l6.839,102.513l0.093,1.317l4.33-0.286L96.494,96.203
			c7.831,1.342,16.885,2.04,26.265,2.04c20.521,0,51.052-4.101,51.052-15.436C173.808,71.477,143.281,67.365,122.76,67.365z
			 M122.76,93.898c-10.171,0-20.324-0.92-28.563-2.57l-6.431-1.535l-1.875-0.537l-5.694,12.572
			c-3.378,6.338-7.759,13.167-12.673,19.748c-13.252,17.78-28.466,31.19-35.391,31.19c-0.601,0-1.066-0.118-1.392-0.369
			c-1.535-1.138-1.582-6.066,1.746-14.541c3.45-8.74,9.573-19.222,17.257-29.536c7.58-10.175,15.804-18.975,23.137-24.794
			l1.782-1.421l-1.492-1.711c-6.181-7.086-12.676-17.386-18.295-29.021c-5.604-11.578-9.634-23.037-11.359-32.256
			c-1.682-8.94-0.701-13.775,1.016-14.602c0.225-0.111,0.49-0.165,0.805-0.165c5.494,0,18.338,14.283,29.508,37.37
			C80.4,53.221,84.423,64.605,86.18,73.803l0.437,2.308l2.262-0.616c9.051-2.437,21.09-3.779,33.885-3.779
			c28.509,0,46.704,6.564,46.704,11.087S151.265,93.898,122.76,93.898z"/>
		<path style="fill:#010002;" d="M82.179,75.639c-3.876,0-7.025,3.153-7.025,7.025s3.153,7.029,7.025,7.029
			c3.876,0,7.022-3.153,7.022-7.029C89.201,78.788,86.055,75.639,82.179,75.639z M82.179,85.334c-1.474,0-2.673-1.195-2.673-2.67
			c0-1.471,1.199-2.666,2.673-2.666c1.471,0,2.67,1.192,2.67,2.666S83.65,85.334,82.179,85.334z"/>
	</g>
</g>
<g>
</g>
<g>
</g>
<g>
</g>
<g>
</g>
<g>
</g>
<g>
</g>
<g>
</g>
<g>
</g>
<g>
</g>
<g>
</g>
<g>
</g>
<g>
</g>
<g>
</g>
<g>
</g>
<g>
</g>
</svg>
