<?xml version="1.0" encoding="iso-8859-1"?>
<!-- Generator: Adobe Illustrator 16.0.0, SVG Export Plug-In . SVG Version: 6.00 Build 0)  -->
<!DOCTYPE svg PUBLIC "-//W3C//DTD SVG 1.1//EN" "http://www.w3.org/Graphics/SVG/1.1/DTD/svg11.dtd">
<svg version="1.1" id="Capa_1" xmlns="http://www.w3.org/2000/svg" xmlns:xlink="http://www.w3.org/1999/xlink" x="0px" y="0px"
	 width="550.085px" height="550.085px" viewBox="0 0 550.085 550.085" style="enable-background:new 0 0 550.085 550.085;"
	 xml:space="preserve">
<g>
	<path d="M441.676,540c0-0.462-0.07-0.929-0.266-1.372l-34.915-80.097l-26.677-132.013v-44.58
		c10.954,3.668,22.547,6.936,34.835,9.665v5.438c0,1.517,1.228,2.749,2.754,2.749h13.744c1.521,0,2.754-1.232,2.754-2.749V285.7
		h6.301c2.272,0,4.121-1.849,4.121-4.126s-1.849-4.126-4.121-4.126h-6.301v-3.78h6.301c2.272,0,4.121-1.848,4.121-4.123
		s-1.849-4.126-4.121-4.126h-6.301v-6.335h12.601c1.578,0,2.95-1.071,3.338-2.595c0.387-1.531-0.317-3.123-1.704-3.867
		l-68.321-36.891v-22.094c8.648,1.993,17.735,3.78,27.274,5.344v7.57c0,1.52,1.228,2.754,2.749,2.754h13.749
		c1.521,0,2.754-1.234,2.754-2.754V195.21h6.301c2.282,0,4.125-1.848,4.125-4.128c0-2.275-1.843-4.126-4.125-4.126h-6.296v-3.78
		h6.305c2.277,0,4.121-1.853,4.121-4.128s-1.844-4.125-4.121-4.125h-6.305v-5.652h7.794c1.563,0,2.917-1.053,3.318-2.562
		c0.401-1.505-0.271-3.097-1.634-3.867l-56.005-31.666v-3.689c0-0.675-0.201-1.333-0.569-1.893l-24.876-37.64V66.07
		c0-1.897-1.54-3.435-3.435-3.435c-1.904,0-3.439,1.538-3.439,3.435v21.884l-24.871,37.64c-0.369,0.56-0.569,1.218-0.569,1.893
		v3.096l-37.188,21.343c-35.458-21.891-52.516-44.659-58.476-54.003v-4.018h4.464c1.61,0,2.921-1.31,2.921-2.926
		c0-1.61-1.307-2.919-2.921-2.919H226.4v-2.681h4.464c1.61,0,2.921-1.309,2.921-2.919c0-1.61-1.307-2.921-2.921-2.921H226.4v-4.004
		h5.521c1.104,0,2.07-0.745,2.35-1.815c0.282-1.071-0.194-2.194-1.155-2.74l-39.667-22.423v-2.618c0-0.479-0.143-0.943-0.406-1.344
		l-17.609-26.656V2.437c0-1.349-1.094-2.437-2.434-2.437c-1.346,0-2.436,1.087-2.436,2.437v15.499l-17.616,26.656
		c-0.259,0.401-0.406,0.866-0.406,1.344v2.188l-39.824,22.857c-0.961,0.55-1.426,1.673-1.144,2.739
		c0.292,1.066,1.253,1.806,2.357,1.806h8.104v4.004h-3.813c-1.61,0-2.924,1.312-2.924,2.922c0,1.61,1.309,2.919,2.924,2.919h3.813
		v2.681h-3.813c-1.61,0-2.924,1.309-2.924,2.919s1.309,2.926,2.924,2.926h3.813v8.032c0,1.076,0.875,1.946,1.946,1.946h6.476
		c1.328,3.512,3.316,7.867,6.188,12.792l-32.646,17.894c-0.98,0.535-1.468,1.664-1.19,2.737c0.273,1.081,1.249,1.832,2.361,1.832
		h9.563v4.979h-3.82c-1.605,0-2.915,1.31-2.915,2.919s1.309,2.926,2.915,2.926h3.82v2.681h-3.82c-1.605,0-2.915,1.309-2.915,2.919
		s1.309,2.924,2.915,2.924h3.82v8.034c0,1.076,0.871,1.951,1.944,1.951h4.308c1.839,9.733,7.444,30.299,23.627,52.43l-13.864,59.473
		l-24.742,56.757c-0.133,0.312-0.187,0.639-0.187,0.975h-6.833v7.141h36.522v-7.141h-8.718l38.223-54.539h13.047l37.75,54.539
		h-8.396v7.141h36.522v-7.141h-6.672c0-0.331-0.049-0.662-0.191-0.975l-24.729-56.729l-1.337-6.608
		c16.176,7.611,35.241,14.104,57.664,18.812v5.134c0,1.517,1.223,2.754,2.744,2.754h13.754c1.517,0,2.749-1.237,2.749-2.754v-11.346
		h6.301c2.277,0,4.126-1.848,4.126-4.126c0-2.272-1.849-4.125-4.126-4.125h-6.301v-3.78h6.301c2.277,0,4.126-1.853,4.126-4.126
		c0-2.275-1.849-4.126-4.126-4.126h-6.301v-7.024h34.145v67.383l-30.774,132.018l-34.938,80.144
		c-0.196,0.443-0.261,0.91-0.261,1.372h-9.649v10.085h51.569V540h-12.303l53.961-76.998h18.421L411.392,540h-11.854v10.085h51.562
		V540H441.676L441.676,540z M399.005,456.123h-0.774l-43.119-20.349l36.449-16.438L399.005,456.123z M272.224,191.082
		c0-0.761,0.616-1.377,1.377-1.377h30.942c0.761,0,1.372,0.616,1.372,1.377c0,0.758-0.611,1.375-1.372,1.375h-30.942
		C272.84,192.457,272.224,191.836,272.224,191.082z M278.986,198.552v7.999c0,1.52,1.232,2.754,2.744,2.754h13.759
		c1.512,0,2.744-1.234,2.744-2.754V195.21h6.305c2.273,0,4.126-1.848,4.126-4.128c0-2.275-1.853-4.126-4.126-4.126h-6.305v-3.78
		h6.305c2.273,0,4.126-1.853,4.126-4.128s-1.853-4.125-4.126-4.125h-6.305v-5.652h10.286c4.326,2.062,8.83,4.091,13.544,6.062
		v39.726l-29.953,16.419c-18.622-14.155-32.81-28.439-43.07-40.387C258.288,193.805,268.294,196.295,278.986,198.552z
		 M273.601,180.425c-0.761,0-1.377-0.616-1.377-1.377s0.616-1.377,1.377-1.377h30.942c0.761,0,1.372,0.616,1.372,1.377
		s-0.611,1.377-1.372,1.377H273.601z M280.438,162.398l7.239-4.158c2.37,1.396,4.816,2.782,7.336,4.158H280.438z M322.068,171.058
		c-1.382-0.588-2.684-1.19-4.028-1.787h4.028V171.058z M339.443,265.337c5.68,2.807,11.603,5.512,17.764,8.093l-6.077,8.76
		L339.443,265.337z M371.609,321.338c0.336,0.485,0.816,0.774,1.334,0.957v1.139h-44.001v-0.481
		c0.477-0.195,0.925-0.476,1.241-0.928l20.946-30.183L371.609,321.338z M335.831,259.083h31.335l-7.635,11.005
		C351.205,266.619,343.28,262.943,335.831,259.083z M372.943,260.407v14.923c-2.763-1.009-5.535-2.026-8.214-3.085L372.943,260.407z
		 M372.943,242.051l-18.826-24.091l18.826-24.092V242.051z M372.859,250.876l-0.914,1.33h-41.621l-1.382-1.983v-0.063l21.684-27.736
		L372.859,250.876z M328.942,241.228v-46.538l18.188,23.271L328.942,241.228z M328.942,178.119c0.099,0.04,0.187,0.082,0.285,0.117
		l-0.285,0.271V178.119z M322.068,222.895v28.579c-8.593-5.031-16.54-10.237-23.854-15.502L322.068,222.895z M328.984,259.924
		l18.804,27.083l-18.846,27.144v-54.245C328.952,259.91,328.971,259.919,328.984,259.924z M328.238,330.308h45.326l3.02,14.935
		h-51.832L328.238,330.308z M368.239,350.75l-17.837,8.881l-18.029-8.881H368.239z M350.411,365.769l30.233,14.906l-30.494,12.676
		l-29.692-12.657L350.411,365.769z M387.37,415.202l-38.798,17.482l-36.86-17.398l38.415-15.971L387.37,415.202z M389.722,410.228
		l-32.496-13.861l27.396-11.388L389.722,410.228z M382.717,375.56L356.6,362.688l21.361-10.642L382.717,375.56z M372.943,313.618
		l-18.463-26.606l7.925-11.421c3.44,1.372,6.964,2.693,10.538,3.986V313.618z M379.823,277.747v-18.664h34.835v6.34h-5.381
		c-2.282,0-4.121,1.851-4.121,4.126c0,2.275,1.848,4.123,4.121,4.123h5.381v3.78h-5.381c-2.282,0-4.121,1.853-4.121,4.126
		c0,2.277,1.848,4.13,4.121,4.13h5.381v1.835C402.355,284.776,390.763,281.467,379.823,277.747z M440.215,280.202
		c0.756,0,1.382,0.616,1.382,1.372s-0.626,1.382-1.382,1.382h-30.938c-0.761,0-1.382-0.616-1.382-1.382
		c0-0.756,0.621-1.372,1.382-1.372H440.215z M440.215,268.173c0.756,0,1.382,0.616,1.382,1.377c0,0.758-0.626,1.376-1.382,1.376
		h-30.938c-0.761,0-1.382-0.618-1.382-1.376c0-0.761,0.621-1.377,1.382-1.377H440.215z M432.911,252.207h-53.088v-28.665
		L432.911,252.207z M350.626,213.496l-21.524-27.534l5.857-5.586c10.271,3.79,21.389,7.301,33.402,10.442L350.626,213.496z
		 M372.943,177.923l-9.059-8.652h9.059V177.923z M372.943,162.398h-16.255l-1.451-1.391l17.706-16.914V162.398z M351.251,157.206
		l-21.524-20.554h43.049L351.251,157.206z M355.923,169.271l16.76,16.003l-1.657,2.128c-11.812-3.036-22.752-6.424-32.87-10.081
		l8.429-8.051H355.923z M432.654,189.705c0.756,0,1.372,0.616,1.372,1.377c0,0.758-0.616,1.375-1.372,1.375h-30.942
		c-0.756,0-1.377-0.616-1.377-1.375c0-0.761,0.621-1.377,1.377-1.377H432.654z M432.654,177.671c0.756,0,1.372,0.616,1.372,1.377
		s-0.616,1.377-1.372,1.377h-30.942c-0.756,0-1.377-0.616-1.377-1.377s0.621-1.377,1.377-1.377H432.654z M379.823,139.074
		l41.247,23.324h-41.247V139.074z M407.098,169.271v5.652h-5.386c-2.277,0-4.126,1.85-4.126,4.125s1.849,4.128,4.126,4.128h5.386
		v3.78h-5.386c-2.277,0-4.126,1.851-4.126,4.126c0,0.894,0.346,1.678,0.831,2.35c-6.413-1.19-12.61-2.48-18.594-3.876v-20.285
		H407.098z M328.942,128.513l22.001-33.295l22,33.295v2.539c-0.019,0.037-0.056,0.061-0.084,0.1h-43.646
		c-0.074-0.196-0.093-0.401-0.195-0.592c-0.019-0.035-0.052-0.049-0.075-0.082V128.513L328.942,128.513z M328.942,143.506
		l18.323,17.501l-1.447,1.391h-16.876V143.506z M338.622,169.271l-6.23,5.943c-1.181-0.448-2.292-0.917-3.449-1.375v-4.569H338.622z
		 M322.068,138.507v23.891h-18.566c-4.153-2.114-8.078-4.268-11.85-6.433L322.068,138.507z M230.869,90.005
		c0.537,0,0.976,0.434,0.976,0.973c0,0.537-0.439,0.975-0.976,0.975h-21.917c-0.534,0-0.976-0.438-0.976-0.975
		c0-0.539,0.441-0.973,0.976-0.973H230.869z M230.869,81.482c0.537,0,0.976,0.434,0.976,0.976c0,0.535-0.439,0.976-0.976,0.976
		h-21.917c-0.534,0-0.976-0.437-0.976-0.976c0-0.542,0.441-0.976,0.976-0.976H230.869z M193.455,54.141l29.213,16.517h-29.213
		V54.141z M193.455,75.527h19.317v4.004h-3.82c-1.61,0-2.919,1.312-2.919,2.922c0,1.61,1.305,2.919,2.919,2.919h3.82v2.681h-3.82
		c-1.61,0-2.919,1.309-2.919,2.919s1.305,2.926,2.919,2.926h3.82v8.032c0,1.076,0.868,1.946,1.944,1.946h9.74
		c0.359,0,0.679-0.124,0.971-0.292c7.645,10.944,24.54,31.055,55.557,50.577l-15.145,8.688c-1.354,0.78-2.009,2.362-1.612,3.867
		c0.406,1.505,1.769,2.553,3.328,2.553H279v5.652h-5.386c-2.28,0-4.13,1.85-4.13,4.125s1.855,4.128,4.13,4.128H279v3.78h-5.386
		c-2.28,0-4.13,1.851-4.13,4.126c0,0.467,0.124,0.894,0.264,1.309c-9.052-2.151-17.525-4.497-25.445-7
		c-6.083-7.528-10.394-13.756-13.112-17.98c0.357-0.35,0.581-0.842,0.581-1.381v-8.035h4.464c1.61,0,2.921-1.309,2.921-2.924
		c0-1.61-1.312-2.919-2.921-2.919h-4.464v-2.681h4.464c1.61,0,2.921-1.309,2.921-2.921c0-1.61-1.312-2.919-2.921-2.919h-4.464
		v-4.492h8.928c1.113,0,2.088-0.756,2.362-1.841c0.273-1.083-0.22-2.208-1.204-2.737l-48.389-26.129V75.527H193.455z
		 M214.31,156.042c-0.534,0-0.979-0.436-0.979-0.975c0-0.535,0.441-0.971,0.979-0.971h21.908c0.534,0,0.98,0.437,0.98,0.971
		c0,0.539-0.446,0.975-0.98,0.975H214.31z M214.31,147.52c-0.534,0-0.979-0.434-0.979-0.976c0-0.539,0.441-0.973,0.979-0.973h21.908
		c0.534,0,0.98,0.434,0.98,0.973c0,0.537-0.446,0.976-0.98,0.976H214.31z M193.455,113.965l37.596,20.302h-37.596V113.965z
		 M218.123,139.138v4.492h-3.809c-1.615,0-2.919,1.309-2.919,2.919c0,1.612,1.304,2.921,2.919,2.921h3.809v2.681h-3.809
		c-1.615,0-2.919,1.31-2.919,2.919c0,1.615,1.304,2.924,2.919,2.924h3.809v8.035c0,1.076,0.875,1.946,1.951,1.946h6.744
		c2.173,3.47,5.706,8.73,10.653,15.168c-17.333-5.932-31.862-12.618-44.022-19.604v-24.401H218.123z M149.601,220.951l3.68-15.786
		l14.954,7.369l-18.165,9.052C149.906,221.371,149.764,221.166,149.601,220.951z M152.546,131.061
		c-3.815-4.331-6.926-8.473-9.498-12.344l9.498-5.204V131.061z M161.772,139.138h22.715l-8.898,12.818
		c-4.119-3.036-7.843-6.079-11.236-9.096L161.772,139.138z M154.452,200.162l2.471-10.58h32.105l2.138,10.58H154.452z
		 M185.248,204.057l-12.631,6.289l-12.769-6.289H185.248z M188.585,184.716H157.42v-0.34c0.333-0.138,0.653-0.338,0.877-0.658
		l14.834-21.382l14.505,20.89c0.24,0.348,0.579,0.548,0.947,0.684V184.716z M162.711,147.314l8.058,11.605L157.42,178.14v-35.61
		C159.082,144.117,160.855,145.713,162.711,147.314z M172.626,214.7l21.41,10.552l-21.602,8.979l-18.493-7.885
		c-0.469-0.561-0.898-1.113-1.358-1.673L172.626,214.7z M167.408,236.32l-2.982,1.239c-1.496-1.444-2.919-2.898-4.306-4.35
		L167.408,236.32z M163.522,242.156c5.491,5.141,11.647,10.202,18.601,15.067l-10.802,4.87l-26.107-12.326L163.522,242.156z
		 M167.581,240.469l4.84-2.014l26.381,11.252l-12.391,5.586C179.365,250.515,173.123,245.54,167.581,240.469z M201.765,252.641
		l2.724,13.458c-5.05-2.655-9.824-5.409-14.261-8.258L201.765,252.641z M177.449,236.369l19.399-8.065l3.612,17.879L177.449,236.369
		z M177.008,212.516l15.126-7.533l3.37,16.647L177.008,212.516z M188.585,177.762l-13.082-18.839l0.775-1.12
		c3.799,2.649,7.895,5.279,12.307,7.874V177.762z M178.772,154.21l9.812-14.132v20.615
		C185.084,158.55,181.859,156.38,178.772,154.21z M177.071,70.657l-1.027-0.98l12.545-11.98v12.96H177.071z M188.585,75.527v6.133
		l-6.415-6.133H188.585z M173.214,66.982l-15.24-14.552h30.49L173.214,66.982z M176.527,75.527l11.866,11.336l-15.623,19.987
		l-15.24-19.499l12.377-11.824H176.527z M188.585,92.952v34.128l-13.338-17.063L188.585,92.952z M157.42,46.662l15.583-23.581
		l15.581,23.581v1.792c-0.021,0.028-0.044,0.044-0.063,0.072h-30.91c-0.054-0.138-0.068-0.287-0.145-0.415
		c-0.014-0.026-0.033-0.04-0.047-0.059V46.662z M157.42,57.286l12.979,12.396l-1.026,0.98H157.42V57.286z M157.42,75.527h6.851
		l-6.851,6.543V75.527z M157.42,93.535l12.883,16.482l-12.883,16.479V93.535z M157.42,132.82l15.355-19.644l15.747,20.15
		l-0.651,0.94h-29.478l-0.973-1.4V132.82z M152.546,53.739v16.918h-29.478L152.546,53.739z M118.222,83.429
		c-0.534,0-0.976-0.436-0.976-0.975c0-0.542,0.437-0.976,0.976-0.976h21.912c0.534,0,0.975,0.434,0.975,0.976
		c0,0.534-0.436,0.975-0.975,0.975H118.222z M118.222,91.949c-0.534,0-0.976-0.439-0.976-0.976c0-0.539,0.437-0.973,0.976-0.973
		h21.912c0.534,0,0.975,0.434,0.975,0.973c0,0.537-0.436,0.976-0.975,0.976H118.222z M134.79,103.518
		c0.518-0.352,0.879-0.912,0.879-1.586v-8.032h4.469c1.61,0,2.924-1.309,2.924-2.926c0-1.61-1.31-2.919-2.924-2.919h-4.469v-2.681
		h4.469c1.61,0,2.924-1.309,2.924-2.919c0-1.61-1.31-2.922-2.924-2.922h-4.469v-4.004h16.876v32.432l-12.102,6.632
		C137.936,110.381,136.09,106.629,134.79,103.518z M114.675,134.268l24.532-13.444c2.737,4.214,6.084,8.732,10.251,13.444H114.675z
		 M110.916,148.007c-0.537,0-0.976-0.434-0.976-0.976c0-0.534,0.439-0.975,0.976-0.975h21.917c0.534,0,0.968,0.436,0.968,0.975
		c0,0.542-0.434,0.976-0.968,0.976H110.916z M110.916,156.534c-0.537,0-0.976-0.437-0.976-0.976c0-0.542,0.439-0.976,0.976-0.976
		h21.917c0.534,0,0.968,0.434,0.968,0.976c0,0.539-0.434,0.976-0.968,0.976H110.916z M125.026,168.463h1.391
		c1.076,0,1.951-0.875,1.951-1.951v-8.035h4.464c1.61,0,2.919-1.309,2.919-2.924c0-1.605-1.309-2.921-2.919-2.921h-4.464v-2.679
		h4.464c1.61,0,2.919-1.312,2.919-2.926c0-1.61-1.309-2.919-2.919-2.919h-4.464v-4.98h24.178v47.724l-6.735,28.903
		C131.924,195.812,126.828,177.594,125.026,168.463z M147.958,228.029l3.412,1.452c2.763,3.25,5.801,6.506,9.075,9.74l-16.722,6.954
		L147.958,228.029z M142.213,252.659l24.439,11.537l-30.317,13.668L142.213,252.659z M122.55,335.666h-10.599l22.71-52.104h24.402
		L122.55,335.666z M143.977,278.69l27.307-12.314l26.084,12.314H143.977z M231.123,335.666H220.05l-36.074-52.104h24.442
		L231.123,335.666z M207.032,278.69h-0.546l-30.537-14.412l9.978-4.497c5.983,3.96,12.459,7.785,19.581,11.388L207.032,278.69z
		 M210.028,268.934L193.455,186.9v-18.414c13.322,7.365,29.391,14.337,48.603,20.435c10.398,12.713,25.61,28.712,46.262,44.627
		l-34.802,19.079c-1.377,0.749-2.07,2.345-1.678,3.871c0.387,1.519,1.759,2.585,3.33,2.585h13.507v7.024h-5.396
		c-2.271,0-4.121,1.851-4.121,4.126c0,2.273,1.85,4.126,4.121,4.126h5.396v3.78h-5.396c-2.271,0-4.121,1.853-4.121,4.125
		c0,2.278,1.85,4.126,4.121,4.126h5.396v2.147C245.689,283.638,226.3,276.865,210.028,268.934z M294.229,280.893
		c0.757,0,1.373,0.607,1.373,1.372c0,0.761-0.616,1.377-1.373,1.377h-30.947c-0.756,0-1.372-0.616-1.372-1.377
		c0-0.756,0.616-1.372,1.372-1.372H294.229z M294.229,268.861c0.757,0,1.373,0.616,1.373,1.377c0,0.758-0.616,1.376-1.373,1.376
		h-30.947c-0.756,0-1.372-0.614-1.372-1.376c0-0.761,0.616-1.377,1.372-1.377H294.229z M268.595,252.207l25.779-14.132
		c6.543,4.779,13.558,9.519,21.128,14.132H268.595z M323.1,352.309l21.113,10.403l-26.63,13.268L323.1,352.309z M315.586,384.591
		l27.47,11.715l-33.444,13.902L315.586,384.591z M307.47,419.37l34.513,16.283l-42.811,19.294L307.47,419.37z M279.724,536.564
		h-14.97l32.07-73.562h34.452L279.724,536.564z M309.967,456.123l38.555-17.38l36.827,17.38H309.967z M417.379,536.564
		l-50.937-73.562h34.514l32.062,73.562H417.379z"/>
</g>
<g>
</g>
<g>
</g>
<g>
</g>
<g>
</g>
<g>
</g>
<g>
</g>
<g>
</g>
<g>
</g>
<g>
</g>
<g>
</g>
<g>
</g>
<g>
</g>
<g>
</g>
<g>
</g>
<g>
</g>
</svg>
